REM DIRINDEX 1\2\6,1\2\7,1\2\8,1\2\9,1\3\10,1\3\11,1\4\12,1\4\13,1\4\14,1\5\15,1\5\16,1\5\17
REM DIRNAME cjc029,folder01,folder02,folder03,folder04,folder05,folder06,folder07,folder08,folder09,folder10,folder11,folder12,folder13,folder14,folder15,folder16
TITLE ""
FILE "1400_3_sec08_0752_0768.mp3" MP3
  TRACK 01 AUDIO
    TITLE "0:"
    INDEX 01 00:00:00
  TRACK 02 AUDIO
    TITLE "17:cjc029_5938"
    INDEX 01 00:00:15
  TRACK 03 AUDIO
    TITLE "0:"
    INDEX 01 00:01:09
  TRACK 04 AUDIO
    TITLE "16:cjc029_5939"
    INDEX 01 00:01:15
  TRACK 05 AUDIO
    TITLE "0:"
    INDEX 01 00:02:42
  TRACK 06 AUDIO
    TITLE "17:cjc029_5940"
    INDEX 01 00:03:27
  TRACK 07 AUDIO
    TITLE "0:"
    INDEX 01 00:04:29
  TRACK 08 AUDIO
    TITLE "16:cjc029_5941"
    INDEX 01 00:04:38
  TRACK 09 AUDIO
    TITLE "0:"
    INDEX 01 00:05:61
  TRACK 10 AUDIO
    TITLE "17:cjc029_5942"
    INDEX 01 00:06:45
  TRACK 11 AUDIO
    TITLE "0:"
    INDEX 01 00:07:62
  TRACK 12 AUDIO
    TITLE "16:cjc029_5943"
    INDEX 01 00:07:68
  TRACK 13 AUDIO
    TITLE "0:"
    INDEX 01 00:09:24
  TRACK 14 AUDIO
    TITLE "17:cjc029_5944"
    INDEX 01 00:10:08
  TRACK 15 AUDIO
    TITLE "0:"
    INDEX 01 00:11:68
  TRACK 16 AUDIO
    TITLE "16:cjc029_5945"
    INDEX 01 00:12:03
  TRACK 17 AUDIO
    TITLE "0:"
    INDEX 01 00:13:08
  TRACK 18 AUDIO
    TITLE "17:cjc029_5946"
    INDEX 01 00:13:69
  TRACK 19 AUDIO
    TITLE "0:"
    INDEX 01 00:16:38
  TRACK 20 AUDIO
    TITLE "16:cjc029_5947"
    INDEX 01 00:16:42
  TRACK 21 AUDIO
    TITLE "0:"
    INDEX 01 00:17:53
  TRACK 22 AUDIO
    TITLE "17:cjc029_5948"
    INDEX 01 00:18:39
  TRACK 23 AUDIO
    TITLE "0:"
    INDEX 01 00:19:26
  TRACK 24 AUDIO
    TITLE "16:cjc029_5949"
    INDEX 01 00:19:36
  TRACK 25 AUDIO
    TITLE "0:"
    INDEX 01 00:20:41
  TRACK 26 AUDIO
    TITLE "17:cjc029_5950"
    INDEX 01 00:21:25
  TRACK 27 AUDIO
    TITLE "0:"
    INDEX 01 00:22:36
  TRACK 28 AUDIO
    TITLE "16:cjc029_5951"
    INDEX 01 00:22:42
  TRACK 29 AUDIO
    TITLE "0:"
    INDEX 01 00:23:51
  TRACK 30 AUDIO
    TITLE "17:cjc029_5952"
    INDEX 01 00:24:35
  TRACK 31 AUDIO
    TITLE "0:"
    INDEX 01 00:25:68
  TRACK 32 AUDIO
    TITLE "16:cjc029_5953"
    INDEX 01 00:25:74
  TRACK 33 AUDIO
    TITLE "0:"
    INDEX 01 00:27:14
  TRACK 34 AUDIO
    TITLE "17:cjc029_5954"
    INDEX 01 00:27:73
  TRACK 35 AUDIO
    TITLE "0:"
    INDEX 01 00:28:68
  TRACK 36 AUDIO
    TITLE "16:cjc029_5955"
    INDEX 01 00:28:74
  TRACK 37 AUDIO
    TITLE "0:"
    INDEX 01 00:30:38
  TRACK 38 AUDIO
    TITLE "17:cjc029_5956"
    INDEX 01 00:31:26
  TRACK 39 AUDIO
    TITLE "0:"
    INDEX 01 00:33:50
  TRACK 40 AUDIO
    TITLE "16:cjc029_5957"
    INDEX 01 00:33:56
  TRACK 41 AUDIO
    TITLE "0:"
    INDEX 01 00:34:71
  TRACK 42 AUDIO
    TITLE "17:cjc029_5958"
    INDEX 01 00:35:59
  TRACK 43 AUDIO
    TITLE "0:"
    INDEX 01 00:36:72
  TRACK 44 AUDIO
    TITLE "16:cjc029_5959"
    INDEX 01 00:37:01
  TRACK 45 AUDIO
    TITLE "0:"
    INDEX 01 00:38:08
  TRACK 46 AUDIO
    TITLE "17:cjc029_5960"
    INDEX 01 00:38:71
  TRACK 47 AUDIO
    TITLE "0:"
    INDEX 01 00:39:68
  TRACK 48 AUDIO
    TITLE "16:cjc029_5961"
    INDEX 01 00:40:03
  TRACK 49 AUDIO
    TITLE "0:"
    INDEX 01 00:41:12
  TRACK 50 AUDIO
    TITLE "17:cjc029_5962"
    INDEX 01 00:41:71
  TRACK 51 AUDIO
    TITLE "0:"
    INDEX 01 00:44:05
  TRACK 52 AUDIO
    TITLE "16:cjc029_5963"
    INDEX 01 00:44:09
  TRACK 53 AUDIO
    TITLE "0:"
    INDEX 01 00:45:26
  TRACK 54 AUDIO
    TITLE "17:cjc029_5964"
    INDEX 01 00:46:13
  TRACK 55 AUDIO
    TITLE "0:"
    INDEX 01 00:48:38
  TRACK 56 AUDIO
    TITLE "16:cjc029_5965"
    INDEX 01 00:48:44
  TRACK 57 AUDIO
    TITLE "0:"
    INDEX 01 00:49:29
  TRACK 58 AUDIO
    TITLE "17:cjc029_5966"
    INDEX 01 00:50:27
  TRACK 59 AUDIO
    TITLE "0:"
    INDEX 01 00:51:56
  TRACK 60 AUDIO
    TITLE "16:cjc029_5967"
    INDEX 01 00:51:67
  TRACK 61 AUDIO
    TITLE "0:"
    INDEX 01 00:53:23
  TRACK 62 AUDIO
    TITLE "17:cjc029_5968"
    INDEX 01 00:54:09
  TRACK 63 AUDIO
    TITLE "0:"
    INDEX 01 00:55:26
  TRACK 64 AUDIO
    TITLE "16:cjc029_5969"
    INDEX 01 00:55:30
  TRACK 65 AUDIO
    TITLE "0:"
    INDEX 01 00:56:59
  TRACK 66 AUDIO
    TITLE "17:cjc029_5970"
    INDEX 01 00:57:43
  TRACK 67 AUDIO
    TITLE "0:"
    INDEX 01 00:58:32
  TRACK 68 AUDIO
    TITLE "16:cjc029_5971"
    INDEX 01 00:58:38
  TRACK 69 AUDIO
    TITLE "0:"
    INDEX 01 00:59:41
